<?xml version="1.0" standalone="no"?>
<!DOCTYPE svg PUBLIC "-//W3C//DTD SVG 20010904//EN"
 "http://www.w3.org/TR/2001/REC-SVG-20010904/DTD/svg10.dtd">
<svg version="1.0" xmlns="http://www.w3.org/2000/svg"
 width="198.000000pt" height="198.000000pt" viewBox="0 0 198.000000 198.000000"
 preserveAspectRatio="xMidYMid meet">
<metadata>
Created by potrace 1.11, written by Peter Selinger 2001-2013
</metadata>
<g transform="translate(0.000000,198.000000) scale(0.100000,-0.100000)"
fill="#000000" stroke="none">
<path d="M818 1545 c-2 -1 -46 -5 -98 -9 -52 -3 -104 -8 -115 -10 -11 -2 -42
-7 -70 -10 -253 -34 -458 -109 -513 -191 -21 -30 -22 -40 -22 -326 0 -276 1
-296 20 -327 18 -29 87 -80 150 -109 91 -43 307 -94 452 -108 34 -4 70 -9 78
-11 28 -10 415 -12 510 -4 118 11 192 20 218 25 11 2 35 6 53 9 33 5 101 19
148 30 145 33 295 110 331 168 19 31 20 51 20 328 0 318 0 315 -55 362 -47 40
-219 108 -315 124 -14 3 -31 7 -38 9 -8 3 -37 8 -65 11 -29 4 -55 8 -58 10 -3
1 -37 6 -75 9 -38 4 -80 9 -94 11 -27 6 -456 14 -462 9z"/>
</g>
</svg>
