<?xml version="1.0" standalone="no"?>
<!DOCTYPE svg PUBLIC "-//W3C//DTD SVG 20010904//EN"
 "http://www.w3.org/TR/2001/REC-SVG-20010904/DTD/svg10.dtd">
<svg version="1.0" xmlns="http://www.w3.org/2000/svg"
 width="700.000000pt" height="700.000000pt" viewBox="0 0 700.000000 700.000000"
 preserveAspectRatio="xMidYMid meet">
<metadata>
Created by potrace 1.11, written by Peter Selinger 2001-2013
</metadata>
<g transform="translate(0.000000,700.000000) scale(0.100000,-0.100000)"
fill="#000000" stroke="none">
<path d="M3298 6395 c-2 -1 -66 -6 -143 -9 -77 -4 -153 -9 -170 -11 -16 -2
-59 -6 -95 -9 -36 -4 -76 -8 -90 -11 -14 -2 -46 -7 -73 -9 -44 -5 -62 -7 -142
-21 -16 -3 -46 -8 -65 -11 -63 -10 -284 -55 -345 -71 -33 -8 -67 -16 -75 -18
-55 -12 -285 -84 -390 -122 -671 -243 -1169 -609 -1407 -1032 -109 -194 -153
-351 -159 -561 -6 -212 31 -373 129 -565 129 -253 363 -503 642 -689 39 -25
75 -51 82 -56 6 -5 29 -19 50 -31 21 -12 67 -38 103 -59 161 -93 446 -215 685
-294 115 -38 380 -110 478 -130 77 -16 247 -47 286 -52 25 -3 55 -8 66 -10 49
-10 127 -20 235 -29 36 -3 79 -8 95 -10 174 -24 871 -24 1005 -1 14 3 60 7
102 10 43 3 88 8 100 11 13 3 41 7 63 9 22 2 58 7 80 11 157 25 232 38 315 56
52 11 102 22 110 24 354 76 827 257 1119 427 643 376 982 858 970 1378 -1 58
-6 121 -10 140 -4 19 -10 48 -13 63 -27 150 -129 367 -245 522 -88 116 -218
248 -346 352 -73 58 -279 203 -290 203 -3 0 -28 15 -57 33 -118 75 -393 202
-608 280 -194 71 -535 164 -705 193 -16 2 -57 10 -90 16 -33 6 -70 12 -83 13
-12 2 -53 8 -90 14 -111 17 -173 24 -317 35 -44 4 -102 9 -130 12 -48 6 -572
14 -577 9z m-1269 -686 c58 -34 126 -73 151 -87 105 -59 537 -305 556 -318 19
-12 37 -4 195 87 95 54 176 99 180 99 3 0 -2 -30 -13 -67 -10 -38 -20 -77 -22
-88 -4 -18 -138 -528 -140 -531 -1 -1 -41 -5 -91 -8 -49 -4 -106 -9 -125 -11
-19 -2 -69 -6 -110 -10 -41 -4 -91 -8 -110 -10 -19 -2 -73 -6 -120 -10 -47 -3
-101 -8 -120 -10 -19 -2 -71 -7 -115 -10 -44 -3 -100 -8 -125 -10 -87 -9 -146
-14 -220 -20 l-75 -6 55 34 c30 18 100 59 155 90 156 87 152 75 44 137 -52 29
-114 64 -139 78 -25 14 -62 36 -82 49 -21 12 -39 23 -41 23 -1 0 -112 63 -246
139 l-243 139 49 28 c26 15 75 43 108 62 33 19 83 47 110 63 28 15 129 73 225
128 96 55 181 101 189 101 7 0 61 -28 120 -61z m2302 -74 c35 -3 84 -7 109
-10 25 -2 79 -7 120 -10 41 -4 95 -8 120 -10 25 -2 79 -7 120 -10 41 -4 93 -8
115 -10 22 -2 76 -7 120 -11 44 -3 96 -8 115 -9 19 -2 69 -7 110 -10 41 -4 82
-9 91 -11 18 -5 19 -6 54 -139 46 -176 77 -292 111 -418 19 -70 34 -129 34
-131 0 -3 -79 40 -175 95 -96 54 -180 99 -186 99 -6 0 -43 -19 -82 -42 -40
-24 -79 -46 -87 -50 -8 -3 -163 -92 -345 -196 l-330 -189 -45 23 c-25 14 -70
39 -101 57 -31 17 -163 93 -293 167 -130 74 -235 138 -233 143 1 5 32 25 67
44 36 19 86 48 113 64 26 16 49 29 52 29 3 0 29 16 59 35 30 19 57 35 60 35 2
0 103 56 223 125 120 69 224 128 231 133 8 4 14 12 14 17 0 6 -69 50 -153 98
-203 116 -194 108 -128 102 31 -3 85 -8 120 -10z m-1636 -1265 c8 -6 270 -157
398 -229 92 -52 116 -66 175 -99 34 -20 62 -39 62 -42 0 -3 -134 -82 -297
-176 -164 -93 -322 -184 -353 -201 -30 -18 -62 -36 -70 -40 -8 -4 -38 -21 -67
-38 l-52 -31 71 -40 c39 -21 83 -46 97 -54 14 -9 61 -35 104 -59 42 -23 77
-45 77 -47 0 -2 -21 -2 -47 1 -27 2 -77 7 -113 10 -36 3 -87 8 -115 10 -27 2
-81 7 -120 10 -77 6 -148 12 -227 20 -60 6 -124 11 -248 21 -47 3 -93 8 -102
9 -15 3 -195 17 -225 18 -10 0 -20 33 -48 147 -3 8 -36 134 -75 280 -38 146
-70 266 -70 268 0 3 16 -6 220 -125 l136 -79 94 53 c52 29 102 57 110 63 8 5
42 24 75 43 33 19 125 71 205 116 190 109 213 122 294 169 64 37 84 41 111 22z
m2522 -145 c-32 -19 -60 -35 -62 -35 -1 0 -55 -31 -119 -68 l-116 -68 53 -27
c28 -15 72 -38 97 -53 25 -14 191 -109 370 -211 179 -102 326 -186 328 -188 3
-2 -474 -277 -558 -322 -25 -13 -61 -34 -80 -47 l-35 -23 -105 59 c-58 33
-125 71 -150 86 -25 14 -63 35 -85 47 -61 34 -446 254 -481 276 l-31 19 -166
-95 c-92 -53 -173 -98 -181 -101 -14 -5 -3 39 98 416 20 74 44 165 53 203 17
67 17 67 52 68 20 1 45 3 56 4 11 1 56 5 100 9 44 4 96 9 115 11 32 4 103 10
245 20 28 2 77 7 110 10 176 17 204 19 365 31 47 4 86 7 87 8 1 0 23 2 50 4
l48 3 -58 -36z"/>
<path d="M140 3399 c-3 -209 2 -975 6 -1008 4 -39 15 -93 29 -158 21 -94 99
-263 173 -378 96 -149 263 -330 406 -440 22 -16 60 -46 85 -65 113 -87 298
-197 470 -281 58 -28 114 -55 123 -60 74 -38 391 -153 543 -198 178 -51 474
-117 615 -136 19 -3 46 -7 60 -9 27 -5 110 -16 150 -21 23 -3 107 -11 210 -21
264 -24 711 -24 990 0 180 16 343 38 525 71 44 8 91 16 105 19 14 2 43 9 65
14 22 6 74 19 115 28 78 18 261 69 365 102 69 22 346 127 372 141 10 5 77 38
148 72 193 93 447 253 568 357 289 249 449 467 537 731 55 163 58 201 59 756
l1 510 -26 -30 c-187 -217 -420 -409 -719 -590 -163 -99 -493 -254 -670 -315
-27 -9 -70 -24 -95 -33 -86 -29 -275 -86 -360 -107 -109 -28 -96 -25 -230 -54
-106 -23 -135 -29 -212 -41 -16 -3 -41 -7 -58 -10 -59 -10 -86 -14 -130 -20
-25 -3 -56 -8 -70 -10 -14 -2 -54 -7 -90 -10 -36 -4 -83 -8 -105 -11 -347 -35
-897 -35 -1191 1 -17 2 -66 7 -110 10 -43 3 -86 8 -94 10 -8 3 -35 7 -60 10
-25 3 -56 7 -70 10 -14 2 -41 7 -60 10 -388 61 -882 200 -1157 326 -24 10 -45
19 -48 19 -9 0 -240 114 -320 158 -140 77 -409 252 -440 286 -5 6 -32 29 -60
51 -91 72 -201 177 -296 284 -44 49 -49 52 -49 30z"/>
</g>
</svg>
