<?xml version="1.0" standalone="no"?>
<!DOCTYPE svg PUBLIC "-//W3C//DTD SVG 20010904//EN"
 "http://www.w3.org/TR/2001/REC-SVG-20010904/DTD/svg10.dtd">
<svg version="1.0" xmlns="http://www.w3.org/2000/svg"
 width="400.000000pt" height="400.000000pt" viewBox="0 0 400.000000 400.000000"
 preserveAspectRatio="xMidYMid meet">
<metadata>
Created by potrace 1.11, written by Peter Selinger 2001-2013
</metadata>
<g transform="translate(0.000000,400.000000) scale(0.100000,-0.100000)"
fill="#000000" stroke="none">
<path d="M1730 2854 c-403 -27 -670 -70 -891 -144 -218 -72 -344 -157 -368
-245 -14 -56 -15 -852 -1 -907 25 -89 167 -194 356 -261 159 -57 420 -109 689
-139 191 -21 833 -17 1010 5 557 72 909 204 988 369 15 32 17 81 17 475 0 402
-2 441 -19 478 -74 164 -474 299 -1051 355 -108 11 -632 21 -730 14z m810 -38
c465 -55 801 -161 915 -288 41 -45 45 -55 45 -100 0 -63 -26 -107 -86 -149
-201 -138 -608 -235 -1129 -269 -765 -50 -1606 107 -1771 331 -28 38 -32 104
-9 148 83 161 531 296 1140 345 129 10 766 -3 895 -18z m-326 -970 c63 -37 96
-90 103 -163 5 -52 9 -61 35 -76 16 -9 35 -30 40 -45 7 -17 23 -33 39 -39 59
-23 89 -126 54 -192 -8 -16 -31 -37 -52 -47 -35 -17 -69 -19 -418 -22 -209 -2
-395 0 -413 3 -102 19 -159 162 -106 267 19 37 71 75 114 83 31 6 37 12 50 53
24 75 99 111 173 83 22 -9 27 -6 37 18 16 40 61 80 106 97 63 23 181 14 238
-20z m-877 -618 c17 -1 29 -6 27 -10 -7 -11 -75 1 -89 14 -7 7 -3 8 10 4 11
-3 34 -7 52 -8z m108 -18 c3 -5 -3 -10 -14 -10 -11 0 -23 5 -26 10 -3 6 3 10
14 10 11 0 23 -4 26 -10z m199 -19 c3 -4 -9 -7 -26 -5 -42 5 -49 14 -10 14 17
0 33 -4 36 -9z m179 -8 c-7 -2 -19 -2 -25 0 -7 3 -2 5 12 5 14 0 19 -2 13 -5z
m115 0 c-10 -2 -26 -2 -35 0 -10 3 -2 5 17 5 19 0 27 -2 18 -5z"/>
<path d="M1755 2766 c-203 -59 -220 -64 -213 -72 3 -3 90 21 194 52 247 75
259 75 508 0 104 -31 191 -54 194 -52 6 7 9 6 -211 71 -127 37 -206 55 -240
54 -31 0 -125 -21 -232 -53z"/>
<path d="M1345 2584 c-11 -3 -30 -7 -42 -10 -13 -2 -23 -8 -23 -13 0 -6 13 -6
32 0 59 16 102 10 289 -45 101 -29 192 -57 202 -61 9 -4 17 -3 17 2 0 11 -354
118 -415 126 -22 3 -49 3 -60 1z"/>
<path d="M2555 2580 c-22 -4 -89 -21 -150 -39 -60 -18 -140 -41 -177 -52 -38
-11 -68 -24 -68 -28 0 -5 89 18 197 50 198 59 273 71 315 48 11 -6 22 -8 25
-6 17 18 -82 37 -142 27z"/>
<path d="M744 2464 c-19 -15 -19 -16 1 -8 11 5 182 11 380 14 l360 6 -361 2
c-316 2 -363 0 -380 -14z"/>
<path d="M2855 2470 c198 -3 367 -9 375 -13 8 -5 6 -1 -4 7 -17 14 -65 16
-375 14 l-356 -2 360 -6z"/>
<path d="M1358 2384 c-43 -14 -78 -28 -78 -33 0 -7 56 7 165 44 31 11 35 13
15 14 -14 0 -60 -11 -102 -25z"/>
<path d="M1943 2403 c-17 -2 -37 -11 -45 -20 -11 -15 -11 -16 7 -8 33 14 123
18 158 6 28 -10 30 -10 17 3 -17 15 -87 25 -137 19z"/>
<path d="M2535 2396 c91 -32 165 -53 165 -45 0 9 -116 46 -171 54 -33 5 -33 5
6 -9z"/>
<path d="M1582 2240 c-19 -4 -39 -13 -45 -20 -10 -10 -8 -11 8 -6 58 21 113
18 223 -14 123 -34 180 -37 67 -2 -172 52 -195 56 -253 42z"/>
<path d="M2255 2230 c-38 -11 -91 -25 -117 -32 -27 -6 -48 -15 -48 -20 0 -12
5 -11 115 22 106 31 150 36 203 21 17 -5 32 -6 32 -1 0 8 -78 30 -102 29 -7 0
-44 -9 -83 -19z"/>
<path d="M1984 1816 c-41 -18 -73 -61 -80 -108 -4 -21 -8 -38 -9 -38 -2 0 -22
9 -46 20 -60 27 -95 25 -126 -6 -22 -22 -24 -31 -19 -68 l7 -44 -60 -4 c-46
-3 -67 -10 -86 -28 -57 -53 -54 -154 6 -204 l31 -26 384 0 c420 0 444 3 464
55 20 52 -8 106 -66 125 -27 9 -33 17 -36 43 -3 30 -6 32 -45 35 l-41 3 5 72
c4 64 2 76 -19 107 -47 70 -179 103 -264 66z"/>
</g>
</svg>
