<?xml version="1.0" standalone="no"?>
<!DOCTYPE svg PUBLIC "-//W3C//DTD SVG 20010904//EN"
 "http://www.w3.org/TR/2001/REC-SVG-20010904/DTD/svg10.dtd">
<svg version="1.0" xmlns="http://www.w3.org/2000/svg"
 width="198.000000pt" height="198.000000pt" viewBox="0 0 198.000000 198.000000"
 preserveAspectRatio="xMidYMid meet">
<metadata>
Created by potrace 1.11, written by Peter Selinger 2001-2013
</metadata>
<g transform="translate(0.000000,198.000000) scale(0.100000,-0.100000)"
fill="#000000" stroke="none">
<path d="M690 1540 c-318 -31 -591 -114 -665 -202 l-25 -30 0 -309 0 -309 37
-41 c118 -130 505 -219 958 -219 434 0 834 92 948 218 l37 42 0 309 0 309 -26
31 c-60 72 -263 144 -516 182 -153 23 -585 34 -748 19z m443 -67 c70 -21 129
-42 130 -48 4 -19 -72 -16 -141 4 -38 12 -72 21 -76 21 -3 0 -6 -31 -6 -70 l0
-70 -55 0 -55 0 0 70 c0 39 -3 70 -7 70 -5 0 -37 -9 -73 -20 -71 -22 -117 -25
-140 -10 -12 8 -12 10 2 15 39 15 255 74 273 74 11 1 78 -16 148 -36z m-379
-158 c61 -17 111 -36 113 -42 4 -12 -239 -83 -282 -83 -32 0 -63 14 -49 22 5
3 32 11 59 18 28 7 54 17 60 21 5 5 -96 9 -227 9 -214 0 -277 7 -232 24 9 3
118 6 242 7 l227 1 -70 23 c-40 13 -63 25 -55 28 8 3 22 8 30 11 20 6 55 -1
184 -39z m663 34 c27 -11 27 -12 -42 -34 l-70 -23 227 -1 c124 -1 233 -4 242
-7 48 -18 -7 -24 -226 -24 -134 0 -238 -4 -232 -9 5 -4 32 -14 59 -21 28 -7
54 -15 59 -18 14 -8 -17 -22 -49 -22 -43 0 -286 72 -282 84 3 8 245 84 274 85
6 1 24 -4 40 -10z m-379 -181 c2 -45 7 -68 15 -68 7 0 44 9 82 20 66 19 135
19 135 0 0 -11 -242 -80 -281 -80 -39 0 -289 69 -289 80 0 19 69 19 135 0 38
-11 76 -20 82 -20 9 0 13 19 13 63 0 35 3 67 7 71 4 4 28 6 53 4 l45 -3 3 -67z
m-10 -165 c-15 -2 -42 -2 -60 0 -18 2 -6 4 27 4 33 0 48 -2 33 -4z m109 -113
c37 -22 63 -67 63 -109 0 -21 6 -32 20 -36 11 -3 20 -10 20 -15 0 -5 16 -24
35 -41 58 -53 46 -127 -23 -146 -15 -5 -136 -8 -269 -8 l-243 0 -25 26 c-31
31 -42 88 -25 129 13 31 54 60 85 60 8 0 15 9 15 20 0 12 12 32 26 47 22 21
31 24 64 19 33 -5 40 -3 45 15 18 56 146 80 212 39z"/>
<path d="M994 880 c-26 -10 -54 -48 -54 -72 0 -22 1 -22 -44 -3 -35 15 -37 15
-61 -9 -16 -16 -22 -31 -18 -45 4 -18 1 -21 -24 -21 -36 0 -71 -24 -84 -57
-12 -32 5 -89 31 -103 11 -6 120 -10 262 -10 275 0 292 4 286 63 -2 25 -10 35
-35 47 -18 8 -33 24 -35 35 -2 12 -12 21 -26 23 -20 3 -22 8 -17 32 10 44 -18
98 -59 115 -39 16 -89 18 -122 5z"/>
</g>
</svg>
