<?xml version="1.0" standalone="no"?>
<!DOCTYPE svg PUBLIC "-//W3C//DTD SVG 20010904//EN"
 "http://www.w3.org/TR/2001/REC-SVG-20010904/DTD/svg10.dtd">
<svg version="1.0" xmlns="http://www.w3.org/2000/svg"
 width="412.000000pt" height="412.000000pt" viewBox="0 0 412.000000 412.000000"
 preserveAspectRatio="xMidYMid meet">
<metadata>
Created by potrace 1.11, written by Peter Selinger 2001-2013
</metadata>
<g transform="translate(0.000000,412.000000) scale(0.100000,-0.100000)"
fill="#000000" stroke="none">
<path d="M1714 3203 c6 -10 -14 -13 -84 -13 -70 0 -89 -3 -84 -12 6 -10 5 -10
-7 -1 -12 10 -18 10 -29 0 -9 -9 -11 -9 -6 0 4 7 -1 11 -13 10 -11 0 -17 -5
-15 -9 3 -4 -1 -8 -10 -8 -8 0 -17 6 -20 13 -5 10 -7 10 -12 0 -3 -8 -25 -13
-53 -13 -26 0 -52 -5 -58 -11 -8 -8 -13 -8 -17 0 -5 8 -13 8 -27 1 -14 -8 -19
-7 -19 2 0 10 -3 9 -9 -1 -8 -13 -12 -13 -27 0 -11 9 -15 9 -10 2 4 -8 2 -13
-6 -14 -76 -4 -95 -7 -110 -13 -9 -4 -29 -8 -45 -10 -15 -1 -34 -6 -42 -10 -9
-6 -12 -5 -8 1 3 5 0 10 -8 10 -8 0 -12 -5 -8 -10 3 -5 -3 -6 -16 -2 -11 3
-21 2 -21 -3 0 -5 -16 -8 -36 -7 -19 0 -38 -3 -41 -8 -3 -5 -11 -6 -19 -3 -8
3 -14 2 -14 -2 0 -5 -12 -8 -27 -9 -48 -1 -54 -3 -49 -12 3 -5 -6 -9 -22 -10
-15 0 -37 0 -49 -1 -13 0 -23 -5 -23 -11 0 -6 -7 -9 -15 -6 -8 4 -17 2 -20 -4
-4 -5 -11 -7 -16 -4 -5 4 -15 3 -21 -2 -7 -4 -24 -9 -38 -11 -13 -2 -27 -8
-31 -13 -3 -6 -10 -9 -15 -8 -21 4 -35 -2 -29 -11 3 -5 -1 -10 -10 -10 -9 0
-13 5 -9 11 3 6 -5 3 -20 -6 -14 -10 -26 -13 -26 -9 0 5 -4 3 -8 -3 -4 -7 -19
-14 -32 -17 -14 -2 -24 -8 -23 -13 1 -6 -10 -8 -24 -5 -18 3 -24 1 -19 -7 7
-10 -7 -15 -41 -14 -7 1 -13 -5 -13 -13 0 -8 -3 -13 -7 -13 -23 4 -29 0 -89
-50 -7 -5 -15 -7 -18 -4 -3 4 -6 1 -6 -5 0 -7 -7 -12 -16 -12 -8 0 -13 -4 -10
-9 3 -5 -1 -12 -10 -15 -8 -3 -12 -10 -9 -16 5 -9 -14 -15 -37 -11 -4 0 -5 -8
-3 -19 2 -11 0 -20 -5 -20 -5 0 -12 -11 -16 -25 -3 -14 -9 -23 -13 -21 -4 3
-7 -274 -7 -615 0 -340 3 -619 7 -619 4 0 9 -12 11 -27 2 -16 8 -27 15 -26 7
2 10 -6 8 -17 -2 -12 0 -18 6 -15 5 4 9 -1 9 -9 0 -8 9 -18 20 -21 11 -4 18
-11 15 -16 -4 -5 -2 -9 3 -9 4 0 18 -9 30 -20 12 -12 22 -18 22 -15 0 3 10 -4
22 -17 13 -13 37 -29 53 -37 17 -8 40 -18 52 -24 13 -6 23 -14 23 -19 0 -4 9
-8 19 -8 11 0 23 -4 26 -10 3 -5 17 -10 31 -10 16 0 24 -6 25 -17 0 -10 3 -13
5 -7 3 7 14 10 24 7 11 -3 18 -8 16 -12 -3 -4 7 -8 22 -9 14 -1 28 -5 31 -10
3 -4 15 -8 26 -10 20 -3 53 -15 89 -34 10 -5 16 -5 12 0 -3 5 1 9 9 9 8 0 12
-4 9 -8 -2 -4 0 -10 6 -14 5 -3 10 -1 10 6 0 8 4 8 15 -1 8 -7 15 -9 15 -4 0
5 4 4 8 -3 4 -6 29 -13 55 -14 37 -2 46 -6 42 -17 -4 -12 -3 -13 10 -2 11 9
15 9 15 1 0 -7 4 -9 10 -6 5 3 19 1 30 -5 14 -8 20 -8 20 0 0 6 5 8 10 5 6 -4
7 -12 3 -18 -4 -7 2 -5 12 3 13 10 16 11 11 2 -5 -9 -3 -13 5 -11 31 4 70 -2
65 -9 -3 -5 1 -9 9 -9 8 0 12 4 9 9 -3 4 -1 8 5 8 5 0 12 -4 15 -9 4 -5 17 -8
31 -6 14 1 25 -1 25 -4 0 -4 18 -6 40 -5 23 0 37 -3 33 -9 -4 -6 4 -7 19 -4
14 4 28 3 32 0 4 -4 23 -6 43 -4 19 1 33 -1 30 -6 -3 -4 17 -8 44 -8 27 0 49
-3 49 -6 0 -3 20 -5 45 -3 28 2 45 -1 45 -8 0 -6 7 -5 17 3 9 8 14 9 11 4 -9
-14 112 -18 567 -18 414 -1 554 3 561 15 3 4 11 8 17 8 7 0 6 -4 -3 -10 -13
-8 -12 -10 3 -10 9 0 17 6 17 13 0 8 4 7 10 -3 5 -8 10 -10 10 -5 0 9 52 15
122 15 15 0 29 4 33 10 3 5 11 10 16 10 6 0 7 -6 3 -12 -6 -10 -5 -10 7 -1 8
7 25 12 37 13 12 0 31 0 42 1 11 0 18 4 16 8 -3 4 6 7 19 7 13 0 21 -4 19 -8
-3 -4 0 -8 5 -8 6 0 11 5 11 11 0 5 4 8 9 4 5 -3 12 -2 15 3 2 4 23 7 45 6 23
0 41 4 41 9 0 5 8 3 17 -4 10 -8 14 -9 10 -2 -4 6 -3 14 3 18 5 3 10 1 10 -6
0 -8 4 -8 13 -2 6 6 25 9 40 8 15 -1 30 3 34 8 4 6 1 7 -7 2 -9 -5 -11 -4 -6
4 6 8 12 9 20 2 7 -6 16 -7 20 -3 4 4 22 7 39 8 18 0 31 4 30 10 -1 5 17 10
40 11 22 2 43 6 46 10 3 5 22 10 41 11 19 2 37 8 38 13 2 5 15 9 28 9 13 0 24
6 24 13 0 8 4 7 10 -3 6 -10 10 -11 10 -2 0 6 8 12 18 12 10 0 24 6 31 13 11
10 13 9 7 -1 -4 -7 9 -3 29 8 20 11 33 15 29 8 -6 -10 -4 -11 7 0 7 6 19 12
27 12 7 0 21 7 29 16 12 11 18 12 23 4 5 -8 9 -7 13 4 4 9 13 16 22 16 8 0 15
6 15 13 0 9 2 9 9 -1 7 -11 9 -10 15 3 3 9 10 13 16 10 5 -3 10 1 10 10 0 9 4
14 9 11 10 -7 61 16 61 27 0 5 4 6 9 3 5 -3 11 1 15 9 3 8 12 15 19 15 8 0 22
11 33 24 10 14 21 23 26 20 4 -3 8 5 8 18 0 14 3 19 8 11 5 -8 12 -2 21 18 7
16 17 27 22 24 10 -7 13 1306 3 1343 -4 14 -12 21 -20 18 -8 -3 -11 0 -8 8 3
7 -2 16 -10 19 -9 4 -16 14 -16 24 0 14 -2 15 -9 4 -7 -11 -10 -9 -16 8 -3 11
-12 21 -19 21 -8 0 -19 7 -26 15 -7 9 -19 14 -26 11 -8 -3 -11 0 -7 10 3 9 0
14 -8 12 -8 -2 -13 2 -12 9 2 8 -4 10 -14 6 -12 -5 -14 -3 -8 8 6 11 5 11 -5
2 -9 -8 -17 -7 -31 5 -11 10 -21 15 -23 12 -2 -3 -10 1 -19 9 -10 7 -17 10
-17 7 0 -4 -7 0 -16 8 -8 9 -20 14 -25 11 -5 -4 -9 -2 -9 3 0 6 -10 8 -22 5
-17 -3 -19 -2 -10 5 10 7 2 11 -28 16 -23 3 -53 14 -68 24 -21 13 -24 14 -18
2 7 -12 6 -13 -5 -2 -7 6 -24 12 -37 12 -14 0 -31 8 -39 18 -9 10 -12 11 -7 2
5 -12 4 -12 -6 -3 -7 6 -19 9 -28 6 -8 -4 -13 -2 -9 3 3 6 -9 9 -29 9 -19 -1
-34 3 -34 8 0 6 -3 7 -7 4 -3 -4 -13 -1 -21 6 -13 9 -14 9 -8 0 5 -9 2 -11 -8
-7 -9 3 -16 10 -16 14 0 5 -9 6 -20 3 -11 -3 -20 -1 -20 5 0 5 -13 8 -30 6
-16 -2 -30 0 -30 4 0 4 -19 8 -41 9 -23 2 -49 8 -57 15 -13 11 -14 11 -7 -2 8
-13 6 -13 -8 -2 -9 8 -21 11 -27 7 -16 -10 -51 5 -44 18 3 7 -2 3 -10 -7 -14
-17 -20 -16 -18 5 1 3 -5 6 -13 6 -8 0 -12 -3 -10 -7 2 -4 -2 -7 -10 -7 -8 0
-12 4 -9 9 3 4 -19 8 -49 8 -29 0 -57 3 -61 7 -14 15 -35 11 -30 -5 5 -15 5
-15 -5 -1 -7 11 -28 17 -72 18 -34 1 -67 5 -73 9 -17 10 -37 11 -30 1 3 -5 -2
-9 -11 -9 -9 0 -14 3 -12 8 3 4 -8 8 -24 9 -17 1 -27 -2 -24 -7 4 -6 1 -10 -4
-10 -6 0 -11 5 -11 10 0 6 -36 10 -89 10 -62 0 -91 4 -94 13 -4 10 -6 10 -6 0
-1 -7 -8 -13 -16 -13 -8 0 -15 6 -15 13 0 8 -4 7 -10 -3 -6 -10 -10 -11 -10
-2 0 6 -5 12 -11 12 -5 0 -7 -6 -3 -12 5 -8 0 -7 -11 2 -11 9 -16 10 -11 3 4
-8 1 -13 -9 -13 -10 0 -13 5 -9 13 5 8 2 8 -9 -2 -9 -7 -17 -9 -17 -4 0 5 -16
10 -36 11 -27 2 -34 -1 -28 -10 5 -10 4 -11 -7 0 -17 15 -43 16 -33 0 5 -7 3
-8 -7 -2 -24 14 -51 16 -43 2 6 -10 4 -11 -7 0 -7 6 -17 12 -22 12 -4 0 -5 -6
-1 -12 6 -10 4 -10 -7 0 -7 6 -19 12 -27 12 -8 0 -10 -5 -6 -12 6 -10 4 -10
-7 0 -17 15 -43 16 -33 0 5 -7 3 -8 -7 -2 -24 14 -51 16 -43 2 6 -10 4 -11 -7
0 -7 6 -17 12 -22 12 -4 0 -5 -6 -1 -12 5 -8 1 -8 -10 1 -14 12 -19 12 -26 2
-6 -11 -8 -11 -12 0 -4 11 -8 12 -20 2 -11 -10 -17 -10 -28 0 -10 9 -11 9 -6
0 4 -7 2 -13 -3 -13 -6 0 -11 6 -11 13 0 8 -4 7 -10 -3 -6 -10 -10 -11 -10 -2
0 6 -5 12 -11 12 -5 0 -7 -6 -3 -12 5 -8 0 -7 -11 2 -11 9 -16 10 -11 3 4 -7
3 -13 -1 -13 -5 0 -15 6 -22 13 -11 10 -13 10 -7 0 4 -7 3 -13 -1 -13 -5 0
-15 6 -22 13 -11 10 -13 10 -7 0z"/>
</g>
</svg>
